<svg xmlns="http://www.w3.org/2000/svg" version="1.1" xmlns:xlink="http://www.w3.org/1999/xlink" xmlns:svgjs="http://svgjs.dev/svgjs" width="128" height="128" viewBox="0 0 128 128"><g transform="matrix(0.8046875,0,0,0.8046875,12.41184074821259,12.814873242367177)"><svg viewBox="0 0 98 98" data-background-color="#282634" preserveAspectRatio="xMidYMid meet" height="127" width="128" xmlns="http://www.w3.org/2000/svg" xmlns:xlink="http://www.w3.org/1999/xlink"><g id="tight-bounds" transform="matrix(1,0,0,1,0.08387967645792571,0.08387967645792571)"><svg viewBox="0 0 97.83224064708413 97.83224064708413" height="97.83224064708413" width="97.83224064708413"><g><svg></svg></g><g><svg viewBox="0 0 97.83224064708413 97.83224064708413" height="97.83224064708413" width="97.83224064708413"><g><path d="M0 48.916c0-27.016 21.9-48.916 48.916-48.916 27.016 0 48.916 21.9 48.916 48.916 0 27.016-21.9 48.916-48.916 48.916-27.016 0-48.916-21.9-48.916-48.916zM48.916 95.242c25.585 0 46.326-20.741 46.326-46.326 0-25.585-20.741-46.326-46.326-46.326-25.585 0-46.326 20.741-46.326 46.326 0 25.585 20.741 46.326 46.326 46.326z" data-fill-palette-color="tertiary" fill="#ff4057" stroke="transparent"></path><ellipse rx="46.959475510600384" ry="46.959475510600384" cx="48.91612032354207" cy="48.91612032354207" fill="#ff4057" stroke="transparent" stroke-width="0" fill-opacity="1" data-fill-palette-color="tertiary"></ellipse></g><g transform="matrix(1,0,0,1,23.475393915029336,34.55624363962599)"><svg viewBox="0 0 50.88145281702546 28.719753367832155" height="28.719753367832155" width="50.88145281702546"><g><svg viewBox="0 0 50.88145281702546 28.719753367832155" height="28.719753367832155" width="50.88145281702546"><g><svg viewBox="0 0 50.88145281702546 28.719753367832155" height="28.719753367832155" width="50.88145281702546"><g id="textblocktransform"><svg viewBox="0 0 50.88145281702546 28.719753367832155" height="28.719753367832155" width="50.88145281702546" id="textblock"><g><svg viewBox="0 0 50.88145281702546 28.719753367832155" height="28.719753367832155" width="50.88145281702546"><g><svg viewBox="0 0 50.88145281702546 28.719753367832155" height="28.719753367832155" width="50.88145281702546"><g><svg xmlns="http://www.w3.org/2000/svg" xmlns:xlink="http://www.w3.org/1999/xlink" version="1.1" x="0" y="0" viewBox="0 0 90 50.800000000000004" enable-background="new 0 0 90 50.8" xml:space="preserve" width="50.88145281702546" height="28.719753367832155" class="icon-icon-0" data-fill-palette-color="quaternary" id="icon-0"><g fill="#282634" data-fill-palette-color="quaternary"><g fill="#282634" data-fill-palette-color="quaternary"><path fill-rule="evenodd" clip-rule="evenodd" d="M80 2.3C80 1 78.9 0 77.6 0H12.3C11 0 10 1 10 2.3v44.3h70V2.3zM44.6 0.8c0.7 0 1.2 0.6 1.2 1.3 0 0.7-0.6 1.3-1.2 1.3-0.7 0-1.2-0.6-1.2-1.3C43.3 1.4 43.9 0.8 44.6 0.8zM75.8 42.5H14.2V4.2h61.6V42.5zM52 47.5c-0.1 0.6-0.5 0.8-1.1 0.8H39.1c-0.6 0-1-0.2-1.1-0.8H0v1.6c0 0.9 6.3 1.7 14 1.7h62c7.7 0 14-0.8 14-1.7v-1.6H52zM60.8 22.2l-11.6-4.9v3.2l8 3.1-8 3.1v3.2l11.6-4.9V22.2zM43.2 32c0.3 0 0.5-0.1 0.7-0.2 0.2-0.1 0.3-0.3 0.4-0.6 0.1-0.2 0.2-0.6 0.3-1l3.1-12.9c0.2-0.6 0.2-1 0.2-1.3 0-0.3-0.1-0.6-0.3-0.7C47.4 15 47.1 15 46.8 15c-0.4 0-0.7 0.1-0.9 0.4-0.1 0.3-0.3 0.7-0.5 1.4l-3.1 12.9c-0.1 0.7-0.2 1.1-0.2 1.3C42.1 31.6 42.4 32 43.2 32zM40.8 26.6l-8-3.1 8-3v-3.2l-11.7 4.9v2.7l11.7 4.9V26.6z" fill="#282634" data-fill-palette-color="quaternary"></path></g></g></svg></g></svg></g></svg></g></svg></g></svg></g><g></g></svg></g></svg></g></svg></g><defs></defs></svg><rect width="97.83224064708413" height="97.83224064708413" fill="none" stroke="none" visibility="hidden"></rect></g></svg></g></svg>