<svg xmlns="http://www.w3.org/2000/svg" version="1.1" xmlns:xlink="http://www.w3.org/1999/xlink" xmlns:svgjs="http://svgjs.dev/svgjs" width="2000" height="2000" viewBox="0 0 2000 2000"><g transform="matrix(1,0,0,1,-0.28443113772425477,-0.28443113772459583)"><svg viewBox="0 0 334 334" data-background-color="#282634" preserveAspectRatio="xMidYMid meet" height="2000" width="2000" xmlns="http://www.w3.org/2000/svg" xmlns:xlink="http://www.w3.org/1999/xlink"><g id="tight-bounds" transform="matrix(1,0,0,1,0.04749999999998522,0.04750000000001364)"><svg viewBox="0 0 333.90454557049503 333.90454557049503" height="333.90454557049503" width="333.90454557049503"><g><svg></svg></g><g><svg viewBox="0 0 333.90454557049503 333.90454557049503" height="333.90454557049503" width="333.90454557049503"><g><path d="M0 166.952c0-92.205 74.747-166.952 166.952-166.952 92.205 0 166.952 74.747 166.953 166.952 0 92.205-74.747 166.952-166.953 166.953-92.205 0-166.952-74.747-166.952-166.953zM166.952 323.881c86.669 0 156.929-70.259 156.929-156.929 0-86.669-70.259-156.929-156.929-156.928-86.669 0-156.929 70.259-156.928 156.928 0 86.669 70.259 156.929 156.928 156.929z" data-fill-palette-color="tertiary" fill="#ff4057" stroke="transparent"></path><ellipse rx="160.27418187383762" ry="160.27418187383762" cx="166.95227278524752" cy="166.95227278524752" fill="#ff4057" stroke="transparent" stroke-width="0" fill-opacity="1" data-fill-palette-color="tertiary"></ellipse></g><g transform="matrix(1,0,0,1,89.3110002323779,71.17305217166896)"><svg viewBox="0 0 155.28254510573922 191.55844122715712" height="191.55844122715712" width="155.28254510573922"><g><svg viewBox="0 0 155.28254510573922 191.55844122715712" height="191.55844122715712" width="155.28254510573922"><g><svg viewBox="0 0 213.1584412271571 262.95485244706776" height="191.55844122715712" width="155.28254510573922"><g transform="matrix(1,0,0,1,0,110.37563803093053)"><svg viewBox="0 0 213.1584412271571 152.57921441613723" height="152.57921441613723" width="213.1584412271571"><g id="textblocktransform"><svg viewBox="0 0 213.1584412271571 152.57921441613723" height="152.57921441613723" width="213.1584412271571" id="textblock"><g><svg viewBox="0 0 213.1584412271571 152.57921441613723" height="152.57921441613723" width="213.1584412271571"><g transform="matrix(1,0,0,1,0,0)"><svg width="213.1584412271571" viewBox="2.5399999618530273 -35.81999969482422 62.11000061035156 44.459999084472656" height="152.57921441613723" data-palette-color="#282634"><path d="M13.33 8.64L2.54 8.64 2.54-25.93 13.33-25.93 13.33 8.64ZM19.8-6.05L19.8-19.46 15.04-19.46 15.04-22.73 18.21-25.93 24.12-25.93 30.62-19.46 30.62-6.47 24.12 0 15.04 0 15.04-6.05 19.8-6.05ZM46.26-35.82L46.26 0 35.47 0 35.47-35.82 46.26-35.82ZM64.08-25.9L47.95-3.66 47.95-18.46 52.93-25.88 64.08-25.9ZM57.52-13.82L64.65 0 52.93 0 51.14-5.22 57.52-13.82Z" opacity="1" transform="matrix(1,0,0,1,0,0)" fill="#282634" class="wordmark-text-0" data-fill-palette-color="quaternary" id="text-0"></path></svg></g></svg></g></svg></g></svg></g><g transform="matrix(1,0,0,1,40.713262274387006,0)"><svg viewBox="0 0 131.7319166783831 74.35534740842651" height="74.35534740842651" width="131.7319166783831"><g><svg xmlns="http://www.w3.org/2000/svg" xmlns:xlink="http://www.w3.org/1999/xlink" version="1.1" x="0" y="0" viewBox="0 0 90 50.79999923706055" enable-background="new 0 0 90 50.8" xml:space="preserve" width="131.7319166783831" height="74.35534740842651" class="icon-icon-0" data-fill-palette-color="quaternary" id="icon-0"><g fill="#282634" data-fill-palette-color="quaternary"><g fill="#282634" data-fill-palette-color="quaternary"><path fill-rule="evenodd" clip-rule="evenodd" d="M80 2.3C80 1 78.9 0 77.6 0H12.3C11 0 10 1 10 2.3v44.3h70V2.3zM44.6 0.8c0.7 0 1.2 0.6 1.2 1.3 0 0.7-0.6 1.3-1.2 1.3-0.7 0-1.2-0.6-1.2-1.3C43.3 1.4 43.9 0.8 44.6 0.8zM75.8 42.5H14.2V4.2h61.6V42.5zM52 47.5c-0.1 0.6-0.5 0.8-1.1 0.8H39.1c-0.6 0-1-0.2-1.1-0.8H0v1.6c0 0.9 6.3 1.7 14 1.7h62c7.7 0 14-0.8 14-1.7v-1.6H52zM60.8 22.2l-11.6-4.9v3.2l8 3.1-8 3.1v3.2l11.6-4.9V22.2zM43.2 32c0.3 0 0.5-0.1 0.7-0.2 0.2-0.1 0.3-0.3 0.4-0.6 0.1-0.2 0.2-0.6 0.3-1l3.1-12.9c0.2-0.6 0.2-1 0.2-1.3 0-0.3-0.1-0.6-0.3-0.7C47.4 15 47.1 15 46.8 15c-0.4 0-0.7 0.1-0.9 0.4-0.1 0.3-0.3 0.7-0.5 1.4l-3.1 12.9c-0.1 0.7-0.2 1.1-0.2 1.3C42.1 31.6 42.4 32 43.2 32zM40.8 26.6l-8-3.1 8-3v-3.2l-11.7 4.9v2.7l11.7 4.9V26.6z" fill="#282634" data-fill-palette-color="quaternary"></path></g></g></svg></g></svg></g><g></g></svg></g></svg></g></svg></g></svg></g><defs></defs></svg><rect width="333.90454557049503" height="333.90454557049503" fill="none" stroke="none" visibility="hidden"></rect></g></svg></g></svg>